<svg width="375" height="342" viewBox="0 0 375 342" fill="none" xmlns="http://www.w3.org/2000/svg">
<path d="M210.174 333.83L203.714 333.829L200.642 308.836L210.175 308.837L210.174 333.83Z" fill="#A0616A"/>
<path d="M210.401 340.59L190.538 340.589V340.337C190.538 338.28 191.353 336.307 192.803 334.853C194.252 333.398 196.219 332.581 198.269 332.581H198.27L201.898 329.82L208.667 332.582L210.401 332.582L210.401 340.59Z" fill="#2F2E41"/>
<path d="M275.165 333.83L268.706 333.829L265.633 308.836L275.166 308.837L275.165 333.83Z" fill="#A0616A"/>
<path d="M275.392 340.59L255.529 340.589V340.337C255.529 338.28 256.344 336.307 257.794 334.853C259.244 333.398 261.21 332.581 263.26 332.581H263.261L266.889 329.82L273.659 332.582L275.393 332.582L275.392 340.59Z" fill="#2F2E41"/>
<path d="M215.444 190.243C215.444 190.243 211.202 194.759 211.023 197.689C210.843 200.619 213.054 195.297 210.843 200.619C208.633 205.942 208.633 202.394 208.633 205.942C208.633 209.49 203.949 212.955 203.949 212.955L196.224 244.836L200.675 319.483H210.401C219.44 291.842 223.646 270.497 218.802 260.938L232.309 230.82C232.309 230.82 257.833 310.942 258.876 311.886C259.918 312.831 259.918 311.5 259.918 312.831C259.918 314.161 258.592 312.831 259.918 314.161L266.108 320.37L275.393 319.483C275.393 319.483 276.635 261.474 266.287 251.449C266.287 251.449 268.677 220.404 266.287 220.491C263.898 220.578 263.897 224.57 263.897 220.578C263.897 216.586 266.729 215.521 266.729 215.521L258.771 187.483L215.444 190.243Z" fill="#202227"/>
<path d="M265.561 128.441L256.571 166.199L258.694 180.243L261.242 197.068L252.434 196.496L238.804 195.608L213.498 193.965L211.284 119.453L222.894 107.283L224.968 101.374L241.753 101.271L245.768 108.366L256.092 111.311C257.419 112.156 258.666 113.122 259.816 114.196C262.364 116.563 264.621 119.569 265.676 122.648C265.994 123.545 266.196 124.48 266.277 125.429L265.561 128.441Z" fill="#E6E6E6"/>
<path d="M187.435 224.243C188.111 223.868 188.698 223.35 189.155 222.725C189.612 222.1 189.929 221.383 190.083 220.623C190.236 219.863 190.224 219.079 190.046 218.325C189.867 217.57 189.528 216.864 189.051 216.254L201.854 192.872L196.278 187.729L181.274 215.612C180.31 216.494 179.703 217.7 179.566 219.001C179.43 220.302 179.774 221.609 180.533 222.673C181.292 223.736 182.414 224.484 183.686 224.773C184.958 225.063 186.292 224.874 187.435 224.243Z" fill="#E6E6E6"/>
<path d="M218.661 114.898L215.677 168.529L201.299 202.232L191.941 214.681L193.005 209.04L186.554 205.802L185.949 205.501L198.332 157.29L199.473 138.555C199.67 135.331 200.531 132.183 202.003 129.311C203.475 126.438 205.525 123.903 208.024 121.866L215.186 116.029L218.661 114.898Z" fill="#E6E6E6"/>
<path d="M187.435 224.243C188.111 223.868 188.698 223.35 189.155 222.725C189.612 222.1 189.929 221.383 190.083 220.623C190.236 219.863 190.224 219.079 190.046 218.325C189.867 217.57 189.528 216.864 189.051 216.254L201.854 192.872L196.278 187.729L181.274 215.612C180.31 216.494 179.703 217.7 179.566 219.001C179.43 220.302 179.774 221.609 180.533 222.673C181.292 223.736 182.414 224.484 183.686 224.773C184.958 225.063 186.292 224.874 187.435 224.243Z" fill="#A0616A"/>
<path d="M218.661 114.898L215.677 168.529L201.299 202.232L191.941 214.681L193.005 209.04L186.554 205.802L185.949 205.501L198.332 157.29L199.473 138.555C199.67 135.331 200.531 132.183 202.003 129.311C203.475 126.438 205.525 123.903 208.024 121.866L215.186 116.029L218.661 114.898Z" fill="#E6E6E6"/>
<path d="M232.518 116.747H94.8289C85.8695 116.747 78.6065 124.033 78.6065 133.021V204.278C78.6065 213.266 85.8695 220.552 94.8289 220.552H232.518C241.478 220.552 248.741 213.266 248.741 204.278V133.021C248.741 124.033 241.478 116.747 232.518 116.747Z" fill="white"/>
<path d="M232.519 221.161H94.8291C90.3673 221.156 86.0897 219.376 82.9347 216.211C79.7797 213.046 78.0051 208.754 78 204.278V133.021C78.0051 128.545 79.7797 124.254 82.9347 121.089C86.0897 117.924 90.3673 116.143 94.8291 116.138H232.519C236.98 116.143 241.258 117.924 244.413 121.089C247.568 124.254 249.342 128.545 249.347 133.021V204.278C249.342 208.754 247.568 213.046 244.413 216.211C241.258 219.376 236.98 221.156 232.519 221.161ZM94.8291 117.355C90.6875 117.355 86.7155 119.006 83.7869 121.944C80.8584 124.881 79.2132 128.866 79.2132 133.021V159.655C79.2132 175.645 85.5449 190.979 96.8155 202.286C108.086 213.592 123.372 219.944 139.311 219.944H232.519C236.66 219.944 240.632 218.294 243.561 215.356C246.489 212.418 248.134 208.433 248.134 204.279V133.021C248.134 130.963 247.73 128.926 246.946 127.026C246.161 125.125 245.011 123.398 243.56 121.944C242.11 120.489 240.389 119.335 238.494 118.548C236.6 117.76 234.569 117.355 232.518 117.355L94.8291 117.355Z" fill="#202227"/>
<path d="M131.222 192.381H99.0729C97.9004 192.381 96.9498 193.335 96.9498 194.511C96.9498 195.687 97.9004 196.641 99.0729 196.641H131.222C132.394 196.641 133.345 195.687 133.345 194.511C133.345 193.335 132.394 192.381 131.222 192.381Z" fill="#375BD9"/>
<path d="M228.274 186.601H205.831C204.659 186.601 203.708 187.554 203.708 188.73V200.292C203.708 201.468 204.659 202.422 205.831 202.422H228.274C229.447 202.422 230.398 201.468 230.398 200.292V188.73C230.398 187.554 229.447 186.601 228.274 186.601Z" fill="#375BD9"/>
<path d="M107.868 156.784C113.898 156.784 118.787 151.88 118.787 145.831C118.787 139.781 113.898 134.877 107.868 134.877C101.838 134.877 96.9498 139.781 96.9498 145.831C96.9498 151.88 101.838 156.784 107.868 156.784Z" fill="#375BD9"/>
<path d="M232.747 98.135C240.319 98.135 246.457 91.9775 246.457 84.3818C246.457 76.786 240.319 70.6285 232.747 70.6285C225.176 70.6285 219.038 76.786 219.038 84.3818C219.038 91.9775 225.176 98.135 232.747 98.135Z" fill="#A0616A"/>
<path d="M243.995 91.4905C244.102 92.3121 242.62 92.399 242.286 91.6411C241.952 90.8833 242.385 90.0244 242.806 89.3117L243.784 87.6574C243.968 87.3458 244.076 86.9946 244.097 86.633C244.119 86.2715 244.054 85.91 243.908 85.5787C243.762 85.2474 243.539 84.956 243.258 84.7286C242.977 84.5012 242.645 84.3445 242.292 84.2716C243.187 82.2525 242.216 79.7325 240.433 78.4352C238.65 77.1379 235.997 79.5652 233.833 79.9815C231.67 80.3977 229.939 78.7369 227.967 79.7215L229.151 76.9819L222.594 79.816L224.118 76.7342C222.463 76.8246 221.758 78.8466 221.428 80.476C221.077 82.2121 220.155 84.3823 218.274 84.0226C217.827 83.9228 217.418 83.6986 217.094 83.3759C216.769 83.0531 216.542 82.6449 216.438 82.1983C214.984 76.575 219.205 70.4275 224.8 69.4413C225.398 67.784 226.51 66.3626 227.972 65.3851C229.434 64.4076 231.17 63.9255 232.925 64.0093C234.68 64.0932 236.362 64.7386 237.725 65.851C239.088 66.9634 240.06 68.4843 240.499 70.1911L242.333 67.938L242.691 71.1304C244.009 70.9898 245.254 71.9235 245.895 73.0878C246.536 74.2521 246.233 75.7553 246.848 76.9334C249.605 82.2134 248.693 88.1577 244.436 92.2072" fill="#2F2E41"/>
<path d="M238.586 220.988C239.249 220.589 239.817 220.051 240.252 219.41C240.687 218.769 240.978 218.041 241.104 217.276C241.231 216.512 241.191 215.728 240.986 214.981C240.781 214.233 240.417 213.539 239.919 212.947L251.886 189.123L246.131 184.182L232.124 212.583C231.192 213.498 230.628 214.725 230.537 216.03C230.447 217.336 230.837 218.629 231.634 219.665C232.43 220.701 233.578 221.408 234.859 221.652C236.141 221.896 237.467 221.659 238.586 220.988Z" fill="#A0616A"/>
<path d="M265.676 122.648L266.277 125.429L264.839 164.3L258.694 180.243L252.434 196.496L251.664 198.498L242.753 211.271L243.615 205.594L237.052 202.588L236.439 202.314L238.804 195.608L244.246 180.201L246.599 173.531L247.109 153.688L247.582 134.928C247.664 131.699 248.413 128.522 249.782 125.599C251.151 122.676 253.109 120.069 255.534 117.944L259.816 114.196C262.364 116.563 264.621 119.569 265.676 122.648Z" fill="#E6E6E6"/>
<path d="M122.517 219.755L94.0817 219.146C90.5445 219.141 87.1538 217.729 84.653 215.219C82.1523 212.71 80.7457 209.308 80.7418 205.759L79.5286 175.935C83.0201 200.25 96.4375 215.674 122.517 219.755Z" fill="#375BD9"/>
</svg>
